<svg xmlns="http://www.w3.org/2000/svg" viewBox="0 0 363.27 73.03"><defs><style>.cls-1{isolation:isolate;}.cls-2{fill:#4a4c9a;}.cls-3{fill:#424696;}</style></defs><g id="Layer_2" data-name="Layer 2"><g id="Layer_7" data-name="Layer 7"><g class="cls-1"><path class="cls-2" d="M94,7.05H109.7a2.86,2.86,0,0,1,2,.78,2.59,2.59,0,0,1,.82,2,2.42,2.42,0,0,1-.82,1.91,3,3,0,0,1-2,.73H96.54l.43-.8v9.16l-.38-.37h11a2.85,2.85,0,0,1,2,.77,2.62,2.62,0,0,1,.82,2,2.4,2.4,0,0,1-.82,1.9,3,3,0,0,1-2,.73H96.73l.24-.38V35l-.38-.43H109.7a2.78,2.78,0,0,1,2,.83,2.6,2.6,0,0,1,.82,1.9,2.5,2.5,0,0,1-.82,1.93,2.93,2.93,0,0,1-2,.75H94a2.77,2.77,0,0,1-2-.82,2.81,2.81,0,0,1-.82-2.05V9.92a2.81,2.81,0,0,1,.82-2A2.77,2.77,0,0,1,94,7.05Z" transform="translate(0 -5.17)"/><path class="cls-2" d="M131,14.33a8.24,8.24,0,0,1,5.28,1.46,7.45,7.45,0,0,1,2.5,3.88,20,20,0,0,1,.68,5.38v12a2.84,2.84,0,0,1-.8,2.05,2.9,2.9,0,0,1-4,0,2.8,2.8,0,0,1-.8-2.05v-12a9.42,9.42,0,0,0-.4-2.8,3.87,3.87,0,0,0-1.44-2,5,5,0,0,0-3-.76,6.22,6.22,0,0,0-3.17.76,5.09,5.09,0,0,0-2,2,5.72,5.72,0,0,0-.69,2.8v12a2.83,2.83,0,0,1-.79,2.05,2.91,2.91,0,0,1-4,0,2.83,2.83,0,0,1-.79-2.05V17.67a2.82,2.82,0,0,1,.79-2,2.89,2.89,0,0,1,4,0,2.82,2.82,0,0,1,.79,2v2l-.7-.14a9.34,9.34,0,0,1,1.22-1.71,12,12,0,0,1,1.88-1.72A9.67,9.67,0,0,1,128,14.83,8.55,8.55,0,0,1,131,14.33Z" transform="translate(0 -5.17)"/><path class="cls-2" d="M169.67,27.4A13.25,13.25,0,0,1,168,34.19a12.31,12.31,0,0,1-4.61,4.59,13.54,13.54,0,0,1-12.92,0,12.38,12.38,0,0,1-4.61-4.59,13.25,13.25,0,0,1-1.71-6.79,13.25,13.25,0,0,1,1.71-6.79A12.58,12.58,0,0,1,150.43,16a13.33,13.33,0,0,1,12.92,0A12.51,12.51,0,0,1,168,20.61,13.25,13.25,0,0,1,169.67,27.4Zm-5.63,0a8.58,8.58,0,0,0-1-4.16,7.2,7.2,0,0,0-2.58-2.75,7,7,0,0,0-7.2,0,7.2,7.2,0,0,0-2.58,2.75,8.58,8.58,0,0,0-1,4.16,8.43,8.43,0,0,0,1,4.11,7.06,7.06,0,0,0,2.58,2.75,7,7,0,0,0,7.2,0,7.06,7.06,0,0,0,2.58-2.75A8.44,8.44,0,0,0,164,27.4Z" transform="translate(0 -5.17)"/><path class="cls-2" d="M180.48,37.08A2.8,2.8,0,0,1,177.62,40a2.65,2.65,0,0,1-2-.82,2.84,2.84,0,0,1-.8-2.05V8a2.82,2.82,0,0,1,2.87-2.87,2.65,2.65,0,0,1,2,.82,2.86,2.86,0,0,1,.77,2Z" transform="translate(0 -5.17)"/><path class="cls-2" d="M207.42,14.33a2.77,2.77,0,0,1,2,.8,2.84,2.84,0,0,1,.8,2.07V37.08a2.84,2.84,0,0,1-.8,2.05,2.91,2.91,0,0,1-4.05,0,2.83,2.83,0,0,1-.79-2.05v-2.3l1,.42a2.63,2.63,0,0,1-.66,1.48,9.18,9.18,0,0,1-1.78,1.72,11.18,11.18,0,0,1-2.66,1.43,9.18,9.18,0,0,1-3.31.59,10.78,10.78,0,0,1-5.88-1.67,11.81,11.81,0,0,1-4.16-4.6,14.41,14.41,0,0,1-1.53-6.75,14.49,14.49,0,0,1,1.53-6.79A12,12,0,0,1,191.29,16,10.41,10.41,0,0,1,197,14.33a11.13,11.13,0,0,1,6.65,2.17,8.94,8.94,0,0,1,1.93,1.9,3,3,0,0,1,.68,1.62l-1.69.61V17.2a2.82,2.82,0,0,1,.79-2A2.72,2.72,0,0,1,207.42,14.33Zm-9.5,20.92a6.35,6.35,0,0,0,3.62-1A7,7,0,0,0,204,31.4a9,9,0,0,0,.87-4,9.11,9.11,0,0,0-.87-4,7,7,0,0,0-2.42-2.82,6.36,6.36,0,0,0-3.62-1,6.27,6.27,0,0,0-3.57,1,7,7,0,0,0-2.42,2.82,9.11,9.11,0,0,0-.87,4,9,9,0,0,0,.87,4,7,7,0,0,0,2.42,2.82A6.26,6.26,0,0,0,197.92,35.25Z" transform="translate(0 -5.17)"/><path class="cls-2" d="M248.12,34.45a2.86,2.86,0,0,1,2,.78,2.59,2.59,0,0,1,.82,2,2.54,2.54,0,0,1-.82,2,2.86,2.86,0,0,1-2,.78H232.84A2.82,2.82,0,0,1,230,37.08V9.92a2.76,2.76,0,0,1,.85-2A3,3,0,0,1,233,7.05a2.82,2.82,0,0,1,2,.82,2.71,2.71,0,0,1,.87,2.05V35.25l-1-.8Z" transform="translate(0 -5.17)"/><path class="cls-2" d="M280.08,27.4a13.25,13.25,0,0,1-1.72,6.79,12.35,12.35,0,0,1-4.6,4.59,13.56,13.56,0,0,1-12.93,0,12.38,12.38,0,0,1-4.61-4.59,13.25,13.25,0,0,1-1.71-6.79,13.25,13.25,0,0,1,1.71-6.79A12.58,12.58,0,0,1,260.83,16a13.35,13.35,0,0,1,12.93,0,12.56,12.56,0,0,1,4.6,4.61A13.25,13.25,0,0,1,280.08,27.4Zm-5.64,0a8.47,8.47,0,0,0-1-4.16,7.2,7.2,0,0,0-2.58-2.75,7,7,0,0,0-7.19,0,7.22,7.22,0,0,0-2.59,2.75,8.58,8.58,0,0,0-1,4.16,8.43,8.43,0,0,0,1,4.11,7.08,7.08,0,0,0,2.59,2.75,7,7,0,0,0,7.19,0,7.06,7.06,0,0,0,2.58-2.75A8.33,8.33,0,0,0,274.44,27.4Z" transform="translate(0 -5.17)"/><path class="cls-2" d="M303.44,14.8a2.71,2.71,0,0,1,2,.83,2.83,2.83,0,0,1,.8,2V29.61a11,11,0,0,1-2.78,7.9q-2.78,2.91-8,2.91t-8-2.91a11,11,0,0,1-2.75-7.9V17.67a2.79,2.79,0,0,1,.8-2,2.68,2.68,0,0,1,2-.83,2.71,2.71,0,0,1,2,.83,2.83,2.83,0,0,1,.8,2V29.61a6.1,6.1,0,0,0,1.27,4.25,4.87,4.87,0,0,0,3.8,1.39,5,5,0,0,0,3.86-1.39,6.15,6.15,0,0,0,1.27-4.25V17.67a2.82,2.82,0,0,1,.79-2A2.72,2.72,0,0,1,303.44,14.8Z" transform="translate(0 -5.17)"/><path class="cls-2" d="M322.09,14.33a10.58,10.58,0,0,1,6.47,2.17,9.32,9.32,0,0,1,1.88,1.9,3,3,0,0,1,.68,1.62l-1.22.61V17.2a2.79,2.79,0,0,1,.8-2,2.68,2.68,0,0,1,2-.83,2.77,2.77,0,0,1,2,.8,2.84,2.84,0,0,1,.8,2.07V38.12a11,11,0,0,1-1.77,6.55,9.91,9.91,0,0,1-4.63,3.58,17.08,17.08,0,0,1-6.15,1.1,17.5,17.5,0,0,1-2.45-.23c-1-.16-2-.35-2.86-.57a15.89,15.89,0,0,1-2.07-.61,4,4,0,0,1-1.95-1.53,2.3,2.3,0,0,1-.21-1.95,2.88,2.88,0,0,1,1.36-1.85,2.34,2.34,0,0,1,2-.12c.32.09.83.28,1.55.56s1.52.54,2.38.78a9,9,0,0,0,2.28.35q3.52,0,5.21-1.41a4.8,4.8,0,0,0,1.7-3.9V34.78l.56.42a2.7,2.7,0,0,1-.63,1.48,9.16,9.16,0,0,1-1.74,1.72,10.81,10.81,0,0,1-2.61,1.43,8.74,8.74,0,0,1-3.2.59,11.14,11.14,0,0,1-6-1.67,11.75,11.75,0,0,1-4.23-4.6,14.18,14.18,0,0,1-1.55-6.75A14.26,14.26,0,0,1,312,20.61,11.89,11.89,0,0,1,316.22,16,10.74,10.74,0,0,1,322.09,14.33Zm.9,5.17a6.71,6.71,0,0,0-3.72,1,7.11,7.11,0,0,0-2.49,2.82,9,9,0,0,0-.89,4,8.87,8.87,0,0,0,.89,4,7.11,7.11,0,0,0,2.49,2.82,7.3,7.3,0,0,0,7.48,0,7.11,7.11,0,0,0,2.49-2.82,8.87,8.87,0,0,0,.89-4,9,9,0,0,0-.89-4,7.11,7.11,0,0,0-2.49-2.82A6.78,6.78,0,0,0,323,19.5Z" transform="translate(0 -5.17)"/><path class="cls-2" d="M352.32,40.42a13.85,13.85,0,0,1-6.94-1.67,11.49,11.49,0,0,1-4.51-4.53,13.29,13.29,0,0,1-1.57-6.49A14.27,14.27,0,0,1,341,20.52a12.23,12.23,0,0,1,4.49-4.59,11.66,11.66,0,0,1,5.88-1.6,10.65,10.65,0,0,1,4.53,1A12.5,12.5,0,0,1,359.7,18a13.24,13.24,0,0,1,2.6,4,11.92,11.92,0,0,1,1,4.79,2.39,2.39,0,0,1-.9,1.83,3,3,0,0,1-2,.71H342.45L341,24.63h17.25l-1,.94V24.3a4.24,4.24,0,0,0-1-2.44,6.17,6.17,0,0,0-2.16-1.72,6.24,6.24,0,0,0-2.75-.64,9,9,0,0,0-2.64.38,5,5,0,0,0-2.11,1.27,6,6,0,0,0-1.41,2.4,11.69,11.69,0,0,0-.52,3.8,8.14,8.14,0,0,0,1.06,4.3,7.25,7.25,0,0,0,6.27,3.6,10.91,10.91,0,0,0,2.78-.28,6.63,6.63,0,0,0,1.67-.68c.42-.27.8-.5,1.15-.68a3.47,3.47,0,0,1,1.6-.43,2.29,2.29,0,0,1,1.71.71,2.31,2.31,0,0,1,.68,1.64,2.92,2.92,0,0,1-1.31,2.3,10.59,10.59,0,0,1-3.44,1.81A13.56,13.56,0,0,1,352.32,40.42Z" transform="translate(0 -5.17)"/></g><path class="cls-2" d="M92.29,70.17c0-4.9,3.13-7.8,7.14-7.8A6.26,6.26,0,0,1,104,64.26L102.56,66a4.09,4.09,0,0,0-3-1.3c-2.68,0-4.48,2.06-4.48,5.41s1.6,5.48,4.62,5.48a3.41,3.41,0,0,0,2.16-.66V71.67H99V69.5h5.25v6.59a6.93,6.93,0,0,1-4.82,1.77C95.33,77.86,92.29,75.11,92.29,70.17Z" transform="translate(0 -5.17)"/><path class="cls-2" d="M109.2,62.64h5.08c3.14,0,5.56,1.1,5.56,4.43s-2.42,4.68-5.56,4.68h-2.41v5.84H109.2Zm4.81,7c2.07,0,3.19-.84,3.19-2.55s-1.12-2.31-3.19-2.31h-2.14v4.86ZM113.78,71l1.94-1.58,4.71,8.13h-3Z" transform="translate(0 -5.17)"/><path class="cls-2" d="M127.29,62.64h3.14l4.93,15h-2.84l-2.3-8c-.48-1.58-.92-3.28-1.36-4.92h-.1c-.41,1.65-.86,3.34-1.34,4.92l-2.31,8h-2.74Zm-2,8.82h7.11v2.08h-7.11Z" transform="translate(0 -5.17)"/><path class="cls-2" d="M138.7,62.64h4.76c3.35,0,5.83,1.15,5.83,4.61s-2.49,4.84-5.74,4.84h-2.17v5.5H138.7ZM143.33,70c2.25,0,3.32-.88,3.32-2.72s-1.17-2.49-3.42-2.49h-1.85V70Z" transform="translate(0 -5.17)"/><path class="cls-2" d="M153.75,62.64h2.68v6h6.1v-6h2.68v15h-2.68V71h-6.1v6.63h-2.68Z" transform="translate(0 -5.17)"/><path class="cls-2" d="M170.67,62.64h2.68v15h-2.68Z" transform="translate(0 -5.17)"/><path class="cls-2" d="M177.77,75.67l1.56-1.82a6,6,0,0,0,3.93,1.71c1.7,0,2.63-.76,2.63-1.93s-1-1.62-2.34-2.2l-2.07-.89a4.29,4.29,0,0,1-3-4c0-2.38,2.13-4.21,5.07-4.21a6.7,6.7,0,0,1,4.66,1.9L186.78,66a4.94,4.94,0,0,0-3.28-1.28c-1.43,0-2.36.66-2.36,1.75s1.15,1.61,2.4,2.12l2,.85c1.8.74,3.06,1.86,3.06,4,0,2.42-2,4.44-5.42,4.44A7.78,7.78,0,0,1,177.77,75.67Z" transform="translate(0 -5.17)"/><path class="cls-2" d="M195.58,64.87h-4.35V62.64h11.39v2.23h-4.36V77.59h-2.68Z" transform="translate(0 -5.17)"/><path class="cls-2" d="M206.76,62.64h9.09v2.23h-6.41V68.7h5.43v2.23h-5.43v4.43h6.64v2.23h-9.32Z" transform="translate(0 -5.17)"/><path class="cls-2" d="M233.26,62.64h9.13v2.23h-6.45v4.24h5.49v2.23h-5.49v6.25h-2.68Z" transform="translate(0 -5.17)"/><path class="cls-2" d="M246.65,62.64h5.09c3.14,0,5.56,1.1,5.56,4.43s-2.42,4.68-5.56,4.68h-2.41v5.84h-2.68Zm4.81,7c2.07,0,3.2-.84,3.2-2.55s-1.13-2.31-3.2-2.31h-2.13v4.86ZM251.24,71l1.94-1.58,4.71,8.13h-3Z" transform="translate(0 -5.17)"/><path class="cls-2" d="M261.94,62.64H271v2.23h-6.41V68.7H270v2.23h-5.43v4.43h6.64v2.23h-9.31Z" transform="translate(0 -5.17)"/><path class="cls-2" d="M276,62.64h9.09v2.23h-6.41V68.7h5.43v2.23h-5.43v4.43h6.64v2.23H276Z" transform="translate(0 -5.17)"/><path class="cls-2" d="M290,62.64h2.68V75.36H299v2.23H290Z" transform="translate(0 -5.17)"/><path class="cls-2" d="M306.12,62.64h3.14l4.93,15h-2.84l-2.3-8c-.48-1.58-.92-3.28-1.37-4.92h-.09c-.41,1.65-.86,3.34-1.34,4.92l-2.31,8H301.2Zm-2,8.82h7.11v2.08h-7.11Z" transform="translate(0 -5.17)"/><path class="cls-2" d="M317.53,62.64h2.75L325,71l1.56,3.19h.09c-.12-1.54-.34-3.43-.34-5.1V62.64h2.55v15h-2.75l-4.69-8.42L319.83,66h-.09c.12,1.58.34,3.38.34,5v6.55h-2.55Z" transform="translate(0 -5.17)"/><path class="cls-2" d="M333.5,70.17c0-4.9,3.09-7.8,6.91-7.8a6,6,0,0,1,4.35,1.89L343.33,66a4,4,0,0,0-2.86-1.3c-2.46,0-4.22,2.06-4.22,5.41s1.62,5.48,4.15,5.48A4.22,4.22,0,0,0,343.62,74l1.44,1.67a6.08,6.08,0,0,1-4.76,2.17C336.5,77.86,333.5,75.11,333.5,70.17Z" transform="translate(0 -5.17)"/><path class="cls-2" d="M349.2,62.64h9.09v2.23h-6.41V68.7h5.43v2.23h-5.43v4.43h6.64v2.23H349.2Z" transform="translate(0 -5.17)"/><path class="cls-3" d="M47.22,61.53H16.67V14.31A8.34,8.34,0,0,0,0,14.31V69.86A8.34,8.34,0,0,0,8.33,78.2H47.22a8.34,8.34,0,0,0,0-16.67Z" transform="translate(0 -5.17)"/><path class="cls-3" d="M33.64,22.64H47.22A8.33,8.33,0,0,0,47.22,6H33.64a8.33,8.33,0,0,0,0,16.66Z" transform="translate(0 -5.17)"/><circle class="cls-3" cx="33.64" cy="36.92" r="8.33"/></g></g></svg>