<?xml version="1.0" standalone="no"?>
<!DOCTYPE svg PUBLIC "-//W3C//DTD SVG 20010904//EN"
 "http://www.w3.org/TR/2001/REC-SVG-20010904/DTD/svg10.dtd">
<svg version="1.0" xmlns="http://www.w3.org/2000/svg"
 width="301.000000pt" height="301.000000pt" viewBox="0 0 301.000000 301.000000"
 preserveAspectRatio="xMidYMid meet">
<metadata>
Created by potrace 1.14, written by Peter Selinger 2001-2017
</metadata>
<g transform="translate(0.000000,301.000000) scale(0.100000,-0.100000)"
fill="#000000" stroke="none">
<path d="M275 2979 c-103 -35 -177 -104 -228 -209 l-32 -65 -3 -1180 c-2 -891
0 -1191 9 -1225 27 -101 101 -196 190 -244 106 -58 45 -56 1295 -56 1131 0
1153 0 1218 20 86 27 178 97 222 170 68 111 65 52 62 1342 l-3 1164 -38 76
c-43 89 -112 157 -197 197 l-55 26 -1190 2 c-1179 2 -1191 2 -1250 -18z"/>
</g>
</svg>
