<svg xmlns="http://www.w3.org/2000/svg" width="22" height="22" viewBox="0 0 22 22">
  <path id="Icon_awesome-behance-square" data-name="Icon awesome-behance-square" d="M9.158,15.067c0,.948-.687,1.247-1.532,1.247H5.412v-2.6H7.671C8.584,13.721,9.158,14.1,9.158,15.067ZM8.78,11.025c0-.869-.673-1.075-1.419-1.075H5.417v2.2h2.1c.742,0,1.267-.324,1.267-1.125Zm6.5,1.139a1.464,1.464,0,0,0-1.557,1.458h3.054A1.4,1.4,0,0,0,15.277,12.165ZM22,4.607V21.893a2.358,2.358,0,0,1-2.357,2.357H2.357A2.358,2.358,0,0,1,0,21.893V4.607A2.358,2.358,0,0,1,2.357,2.25H19.643A2.358,2.358,0,0,1,22,4.607ZM13.342,9.763h3.821V8.835H13.342ZM11.231,15.18a2.441,2.441,0,0,0-1.719-2.534A1.833,1.833,0,0,0,10.8,10.829C10.8,8.953,9.4,8.5,7.783,8.5H3.339v9.429H7.911C9.625,17.915,11.231,17.1,11.231,15.18Zm7.43-.727c0-2.018-1.183-3.7-3.32-3.7a3.427,3.427,0,0,0-3.492,3.614,3.327,3.327,0,0,0,3.492,3.585,3.045,3.045,0,0,0,3.2-2.3H16.883a1.553,1.553,0,0,1-1.483.889,1.541,1.541,0,0,1-1.675-1.733h4.921C18.651,14.694,18.661,14.571,18.661,14.453Z" transform="translate(0 -2.25)" fill="#fff"/>
</svg>
