<svg xmlns="http://www.w3.org/2000/svg" viewBox="0 0 97.75 97.75"><defs><style>.cls-1{fill:#fff;}</style></defs><g id="Layer_2" data-name="Layer 2"><g id="Capa_1" data-name="Capa 1"><path class="cls-1" d="M39.34,38.73c0-4.61-3.14-4.61-3.14-4.61H23.29V44H35.4C37.49,44,39.34,43.34,39.34,38.73Z"/><path class="cls-1" d="M36.2,50.85H23.29V62.7H35.6c1.86-.06,5.28-.64,5.28-5.76C40.88,50.78,36.2,50.85,36.2,50.85Z"/><path class="cls-1" d="M69.24,44c-6.85,0-7.8,6.84-7.8,6.84H76S76.09,44,69.24,44Z"/><path class="cls-1" d="M48.88,0A48.88,48.88,0,1,0,97.75,48.88,48.87,48.87,0,0,0,48.88,0ZM59.53,28.85H77.82v5.46H59.53ZM50.28,57.49C50.28,71,36.2,70.57,36.2,70.57H13.13V26.24H36.2c7,0,12.55,3.87,12.55,11.8S42,46.48,42,46.48C50.9,46.48,50.28,57.49,50.28,57.49Zm19,7c7.37,0,7.11-4.77,7.11-4.77h7.8c0,12.66-15.17,11.79-15.17,11.79-18.21,0-17-17-17-17s0-17,17-17C87,37.52,84.5,56.76,84.5,56.76h-23C61.53,65,69.33,64.48,69.33,64.48Z"/></g></g></svg>