<svg xmlns="http://www.w3.org/2000/svg" viewBox="0 0 97.76 97.76"><defs><style>.cls-1{fill:#3b3583;}</style></defs><g id="Layer_2" data-name="Layer 2"><g id="Layer_1-2" data-name="Layer 1"><g id="Layer_2-2" data-name="Layer 2"><g id="Capa_1" data-name="Capa 1"><path class="cls-1" d="M39.35,38.73c0-4.61-3.14-4.61-3.14-4.61H23.3V44H35.41C37.5,44,39.35,43.34,39.35,38.73Z"/><path class="cls-1" d="M36.21,50.85H23.3V62.7H35.61c1.86-.06,5.28-.64,5.28-5.76C40.89,50.78,36.21,50.85,36.21,50.85Z"/><path class="cls-1" d="M69.25,44c-6.85,0-7.8,6.84-7.8,6.84H76S76.1,44,69.25,44Z"/><path class="cls-1" d="M48.89,0A48.88,48.88,0,1,0,97.76,48.89h0A48.87,48.87,0,0,0,48.9,0ZM59.54,28.85H77.83v5.46H59.54ZM50.29,57.49c0,13.51-14.08,13.08-14.08,13.08H13.14V26.24H36.21c7,0,12.55,3.87,12.55,11.8S42,46.48,42,46.48C50.91,46.48,50.29,57.49,50.29,57.49Zm19,7c7.37,0,7.11-4.77,7.11-4.77h7.8C84.2,72.38,69,71.51,69,71.51c-18.21,0-17-17-17-17s0-17,17-17c18,0,15.48,19.25,15.48,19.25h-23c0,8.24,7.83,7.72,7.83,7.72Z"/></g></g></g></g></svg>