<svg xmlns="http://www.w3.org/2000/svg" viewBox="0 0 511.5 512.08"><defs><style>.cls-1{fill:#fff;}</style></defs><g id="Layer_2" data-name="Layer 2"><g id="regular"><path class="cls-1" d="M348.89,494.29c.42-.12.83-.3,1.25-.44C610.73,390.31,538.65,0,256,0,114.15,0,0,115.63,0,256,0,433.64,179.93,560.41,348.89,494.29ZM112.66,427.93c18.18-30.55,77-116.74,177.39-146.48a539.24,539.24,0,0,1,37.16,186.77,222.58,222.58,0,0,1-214.55-40.29Zm246,26.94A574.79,574.79,0,0,0,322.2,274.24c44.41-6.93,95.83-2.3,154.13,21.06A224.5,224.5,0,0,1,358.68,454.87Zm121-192.66c-64.21-24.13-120.81-27.14-169.79-17.79-7.58-17.07-15.53-33.48-24-48.58,75.16-30,119.57-66.6,139.46-86A221.14,221.14,0,0,1,479.68,262.21Zm-77-175.13c-18.09,17.22-60.7,52-133.55,80.43C233.41,111,195.22,71.17,171,48.85A222.68,222.68,0,0,1,402.67,87.08ZM140.44,64.49c18.26,16.06,58.34,54.64,97,114.28-53.12,17.11-119.72,29.68-200.72,31.45,12.88-61.74,51.37-114,103.7-145.73ZM32.68,242.35c90.67-1.48,164.06-15.79,222.06-35.16,8,14.06,15.64,29.38,23,45.29-101,32.17-164.14,115.22-188.31,152.73-39-43.52-60.5-100.31-56.71-162.86Z"/></g></g></svg>