<svg xmlns="http://www.w3.org/2000/svg" viewBox="0 0 16 15.9"><defs><style>.cls-1{fill:#3b3583;}</style></defs><g id="Layer_2" data-name="Layer 2"><g id="Layer_1-2" data-name="Layer 1"><g id="Layer_2-2" data-name="Layer 2"><g id="Layer_1-2-2" data-name="Layer 1-2"><path class="cls-1" d="M16,7.9a8,8,0,1,0-9.25,8V10.23h-2V7.9h2V6.13A2.83,2.83,0,0,1,9.26,3a2.68,2.68,0,0,1,.49,0,13.66,13.66,0,0,1,1.8.15v2h-1a1.16,1.16,0,0,0-1.3,1,1.77,1.77,0,0,0,0,.23V7.9h2.22l-.35,2.33H9.25v5.62A8,8,0,0,0,16,7.9Z"/></g></g></g></g></svg>