<svg xmlns="http://www.w3.org/2000/svg" viewBox="0 0 220 120.4"><defs><style>.cls-1{fill:#3b3583;}</style></defs><g id="Layer_2" data-name="Layer 2"><g id="Layer_1-2" data-name="Layer 1"><g id="Groupe_235" data-name="Groupe 235"><g id="Groupe_203" data-name="Groupe 203"><path id="Tracé_143" data-name="Tracé 143" class="cls-1" d="M53,62H18.71V10.18A9.36,9.36,0,0,0,0,10.18v61a9.26,9.26,0,0,0,9.36,9.15H53A9.15,9.15,0,1,0,53.46,62,2.94,2.94,0,0,0,53,62Z"/><path id="Tracé_144" data-name="Tracé 144" class="cls-1" d="M37.77,19.75H53A9.36,9.36,0,0,0,53.22,1H37.77a9.36,9.36,0,0,0,0,18.72Z"/><circle id="Ellipse_26" data-name="Ellipse 26" class="cls-1" cx="37.77" cy="40.67" r="9.36"/></g><g id="Groupe_204" data-name="Groupe 204"><path id="Tracé_145" data-name="Tracé 145" class="cls-1" d="M89.85,2.15h18a3.33,3.33,0,0,1,2.34.89,3,3,0,0,1,.94,2.29,2.75,2.75,0,0,1-.94,2.17,3.42,3.42,0,0,1-2.34.84H92.81l.49-.92V17.91l-.44-.43h12.59a3.23,3.23,0,0,1,2.34.89,3,3,0,0,1,.94,2.28,2.79,2.79,0,0,1-.94,2.18,3.46,3.46,0,0,1-2.34.84H93l.27-.43V34.1l-.44-.48h15a3.14,3.14,0,0,1,2.34.94,3,3,0,0,1,.94,2.17,2.86,2.86,0,0,1-.94,2.2,3.32,3.32,0,0,1-2.34.86h-18a3.21,3.21,0,0,1-3.28-3.14V5.44a3.23,3.23,0,0,1,3.16-3.29h.12Z"/><path id="Tracé_146" data-name="Tracé 146" class="cls-1" d="M133.41,10.49a9.44,9.44,0,0,1,6.05,1.67,8.43,8.43,0,0,1,2.85,4.44,22.37,22.37,0,0,1,.78,6.15V36.52a3.19,3.19,0,0,1-.91,2.34,3.33,3.33,0,0,1-4.63,0,3.23,3.23,0,0,1-.91-2.34V22.75a10.24,10.24,0,0,0-.46-3.2,4.38,4.38,0,0,0-1.64-2.28,5.62,5.62,0,0,0-3.39-.86,7,7,0,0,0-3.62.86,5.79,5.79,0,0,0-2.27,2.28,6.61,6.61,0,0,0-.77,3.2V36.52a3.24,3.24,0,0,1-.92,2.34,3.33,3.33,0,0,1-4.63,0,3.22,3.22,0,0,1-.9-2.34V14.31a3.26,3.26,0,0,1,.9-2.35,3.33,3.33,0,0,1,4.63,0,3.28,3.28,0,0,1,.92,2.35v2.31l-.81-.16a10.77,10.77,0,0,1,1.4-2,13.48,13.48,0,0,1,2.16-2A10.82,10.82,0,0,1,130,11.05,10,10,0,0,1,133.41,10.49Z"/><path id="Tracé_147" data-name="Tracé 147" class="cls-1" d="M176.76,25.44a15.25,15.25,0,0,1-2,7.78,14.14,14.14,0,0,1-5.26,5.24,15.49,15.49,0,0,1-14.8,0,14.14,14.14,0,0,1-5.26-5.24,16.31,16.31,0,0,1,0-15.55,14.22,14.22,0,0,1,5.26-5.27,15.27,15.27,0,0,1,14.8,0,14.3,14.3,0,0,1,5.26,5.27A15.11,15.11,0,0,1,176.76,25.44Zm-6.46,0a9.63,9.63,0,0,0-1.1-4.76,8.12,8.12,0,0,0-3-3.14,8,8,0,0,0-8.22,0,8.19,8.19,0,0,0-3,3.14,9.74,9.74,0,0,0-1.1,4.76,9.6,9.6,0,0,0,1.1,4.7,8.25,8.25,0,0,0,3,3.16,8,8,0,0,0,8.23,0,8.22,8.22,0,0,0,3-3.15,9.71,9.71,0,0,0,1.1-4.7Z"/><path id="Tracé_148" data-name="Tracé 148" class="cls-1" d="M188.1,36.52A3.21,3.21,0,0,1,185,39.8h-.14a3,3,0,0,1-2.25-.94,3.2,3.2,0,0,1-.92-2.34V3.28A3.22,3.22,0,0,1,184.8,0h.13a3,3,0,0,1,2.29.94,3.33,3.33,0,0,1,.89,2.34Z"/><path id="Tracé_149" data-name="Tracé 149" class="cls-1" d="M216.77,10.49a3.09,3.09,0,0,1,2.31.92,3.19,3.19,0,0,1,.92,2.36V36.52a3.24,3.24,0,0,1-.92,2.34,3.31,3.31,0,0,1-4.62,0,3.19,3.19,0,0,1-.91-2.34V33.89l1.18.48a3.09,3.09,0,0,1-.75,1.7,10.58,10.58,0,0,1-2,2,12.74,12.74,0,0,1-3,1.64,10.66,10.66,0,0,1-3.79.67,12.29,12.29,0,0,1-6.72-1.91,13.43,13.43,0,0,1-4.76-5.27,18,18,0,0,1,0-15.49,13.64,13.64,0,0,1,4.7-5.27,11.9,11.9,0,0,1,6.56-1.91A12.57,12.57,0,0,1,212.49,13a9.89,9.89,0,0,1,2.2,2.18,3.41,3.41,0,0,1,.78,1.85l-1.93.7V13.77a3.2,3.2,0,0,1,.91-2.34A3.08,3.08,0,0,1,216.77,10.49ZM205.91,34.42a7.26,7.26,0,0,0,4.14-1.18A8.14,8.14,0,0,0,212.82,30a10.45,10.45,0,0,0,1-4.57,10.4,10.4,0,0,0-1-4.63,8,8,0,0,0-2.77-3.23,7.33,7.33,0,0,0-4.14-1.18,7.23,7.23,0,0,0-4.09,1.18,8,8,0,0,0-2.77,3.23,10.41,10.41,0,0,0-1,4.63,10.32,10.32,0,0,0,1,4.57,7.92,7.92,0,0,0,2.77,3.22A7.15,7.15,0,0,0,205.91,34.42Z"/></g><g id="Groupe_205" data-name="Groupe 205"><path id="Tracé_150" data-name="Tracé 150" class="cls-1" d="M105.47,74.09a3,3,0,0,1,2.13.81,2.91,2.91,0,0,1,0,4.11,3,3,0,0,1-2.13.81H89.56a2.93,2.93,0,0,1-3-2.87V48.53a2.86,2.86,0,0,1,.88-2.13,3.09,3.09,0,0,1,2.25-.86,2.94,2.94,0,0,1,2.08.86,2.8,2.8,0,0,1,.91,2.13v26.4l-1.08-.84Z"/><path id="Tracé_151" data-name="Tracé 151" class="cls-1" d="M135.79,66.74A13.81,13.81,0,0,1,134,73.82a12.78,12.78,0,0,1-4.8,4.77,14.1,14.1,0,0,1-13.46,0,12.78,12.78,0,0,1-4.8-4.77,14.86,14.86,0,0,1,0-14.15,12.86,12.86,0,0,1,4.8-4.8,13.89,13.89,0,0,1,13.46,0,13,13,0,0,1,4.8,4.8A13.77,13.77,0,0,1,135.79,66.74Zm-5.87,0a9,9,0,0,0-1-4.33,7.42,7.42,0,0,0-2.7-2.86,7.34,7.34,0,0,0-7.49,0,7.42,7.42,0,0,0-2.7,2.86A9.79,9.79,0,0,0,116,71a7.42,7.42,0,0,0,2.7,2.86,7.34,7.34,0,0,0,7.49,0,7.42,7.42,0,0,0,2.7-2.86A8.88,8.88,0,0,0,129.92,66.74Z"/><path id="Tracé_152" data-name="Tracé 152" class="cls-1" d="M159.2,53.62a2.81,2.81,0,0,1,2.1.86,3,3,0,0,1,.83,2.13V69.05a11.44,11.44,0,0,1-2.89,8.22q-2.88,3-8.33,3t-8.3-3a11.52,11.52,0,0,1-2.86-8.22V56.61a3,3,0,0,1,.83-2.13,3,3,0,0,1,4.22,0,3,3,0,0,1,.83,2.13V69.05A6.37,6.37,0,0,0,147,73.48a5.11,5.11,0,0,0,4,1.44,5.19,5.19,0,0,0,4-1.44,6.37,6.37,0,0,0,1.32-4.43V56.61a3,3,0,0,1,.83-2.13A2.84,2.84,0,0,1,159.2,53.62Z"/><path id="Tracé_153" data-name="Tracé 153" class="cls-1" d="M177.75,53.14a10.78,10.78,0,0,1,3.77.63,11,11,0,0,1,3,1.62,9.43,9.43,0,0,1,2,2,3.12,3.12,0,0,1,.71,1.69l-1.27.64V56.12a2.92,2.92,0,0,1,.83-2.13,3,3,0,0,1,4.2,0,2.88,2.88,0,0,1,.84,2.15V77.91a11.55,11.55,0,0,1-1.84,6.83,10.42,10.42,0,0,1-4.82,3.72,17.77,17.77,0,0,1-6.41,1.15,16.94,16.94,0,0,1-2.55-.25c-1-.16-2-.36-3-.59a15.76,15.76,0,0,1-2.16-.63,4.15,4.15,0,0,1-2-1.59,2.42,2.42,0,0,1-.22-2,3.05,3.05,0,0,1,1.42-1.94,2.44,2.44,0,0,1,2.06-.12c.32.1.86.29,1.61.58a22.26,22.26,0,0,0,2.47.81,9.22,9.22,0,0,0,2.38.37q3.67,0,5.44-1.47a5,5,0,0,0,1.76-4.06V74.43l.59.44a2.76,2.76,0,0,1-.67,1.54A8.78,8.78,0,0,1,184,78.2a11.06,11.06,0,0,1-2.72,1.49,9,9,0,0,1-3.32.61,11.55,11.55,0,0,1-6.27-1.74,12.28,12.28,0,0,1-4.41-4.8,16.22,16.22,0,0,1,0-14.1,12.59,12.59,0,0,1,4.36-4.8A11.22,11.22,0,0,1,177.75,53.14Zm.93,5.38a6.89,6.89,0,0,0-3.87,1.08,7.35,7.35,0,0,0-2.6,2.93,9.41,9.41,0,0,0-.93,4.21,9.23,9.23,0,0,0,.93,4.16,7.35,7.35,0,0,0,2.6,2.93,6.89,6.89,0,0,0,3.87,1.08,7.08,7.08,0,0,0,3.92-1.08,7.43,7.43,0,0,0,2.6-2.93,10,10,0,0,0,0-8.37,7.43,7.43,0,0,0-2.6-2.93,7.08,7.08,0,0,0-3.92-1.08Z"/><path id="Tracé_154" data-name="Tracé 154" class="cls-1" d="M208.6,80.3a14.3,14.3,0,0,1-7.22-1.73,11.92,11.92,0,0,1-4.7-4.72A13.77,13.77,0,0,1,195,67.09a14.83,14.83,0,0,1,1.78-7.52,12.68,12.68,0,0,1,4.68-4.77,12,12,0,0,1,6.12-1.66,11,11,0,0,1,4.72,1A12.79,12.79,0,0,1,216.28,57,13.46,13.46,0,0,1,219,61.12a12.57,12.57,0,0,1,1,5,2.54,2.54,0,0,1-.93,1.91,3.12,3.12,0,0,1-2,.73h-18.7l-1.47-4.89h18l-1.07,1V63.51a4.52,4.52,0,0,0-1-2.55,6.61,6.61,0,0,0-2.25-1.78,6.39,6.39,0,0,0-2.87-.66,9.08,9.08,0,0,0-2.74.39,5.28,5.28,0,0,0-2.2,1.32,6.47,6.47,0,0,0-1.47,2.5,12.07,12.07,0,0,0-.54,4,8.6,8.6,0,0,0,1.1,4.49,7.53,7.53,0,0,0,6.53,3.74,11.22,11.22,0,0,0,2.89-.29,6.78,6.78,0,0,0,1.74-.71c.44-.28.84-.52,1.2-.71a3.65,3.65,0,0,1,1.67-.44,2.47,2.47,0,0,1,2.5,2.44h0a3,3,0,0,1-1.38,2.4,11.14,11.14,0,0,1-3.57,1.89A14,14,0,0,1,208.6,80.3Z"/></g></g><path class="cls-1" d="M17.5,120.08a11.62,11.62,0,0,1-2.72.3A8,8,0,0,1,12,119.9a6.48,6.48,0,0,1-2.2-1.36,6.26,6.26,0,0,1-1.45-2.11,7.47,7.47,0,0,1,0-5.5,6.19,6.19,0,0,1,1.46-2.11A6.5,6.5,0,0,1,12,107.49a7.75,7.75,0,0,1,2.71-.47,8.22,8.22,0,0,1,2.8.46,5.67,5.67,0,0,1,2.1,1.23l-1.94,2.2a3.42,3.42,0,0,0-1.18-.85,4.08,4.08,0,0,0-1.67-.33,3.64,3.64,0,0,0-1.49.3,3.39,3.39,0,0,0-1.18.82,3.7,3.7,0,0,0-.79,1.26,4.48,4.48,0,0,0-.27,1.58,4.92,4.92,0,0,0,.25,1.62,3.45,3.45,0,0,0,.74,1.26,3.52,3.52,0,0,0,1.22.83,4.55,4.55,0,0,0,1.66.29,5.55,5.55,0,0,0,1-.08,3.62,3.62,0,0,0,.9-.26V115H14.44v-2.48h5.24v6.73A10.45,10.45,0,0,1,17.5,120.08Z"/><path class="cls-1" d="M30.78,120.06,28,115H27v5H24v-12.7h4.84a8.84,8.84,0,0,1,1.79.19,4.71,4.71,0,0,1,1.56.64,3.37,3.37,0,0,1,1.1,1.18,3.75,3.75,0,0,1,.41,1.83,3.36,3.36,0,0,1-.7,2.17,3.83,3.83,0,0,1-1.93,1.26l3.31,5.43Zm-.13-8.81a1.22,1.22,0,0,0-.19-.72,1.24,1.24,0,0,0-.48-.43,2.39,2.39,0,0,0-.67-.21,6.07,6.07,0,0,0-.71,0H27v3h1.46a4.08,4.08,0,0,0,.77-.07,2.25,2.25,0,0,0,.72-.22,1.27,1.27,0,0,0,.53-.47A1.34,1.34,0,0,0,30.65,111.25Z"/><path class="cls-1" d="M46.27,120.06l-1-2.49H40.37l-.93,2.49H36.1l5.33-12.7h3l5.27,12.7Zm-3.41-9.31-1.61,4.36h3.19Z"/><path class="cls-1" d="M62.16,111.27a4,4,0,0,1-.41,1.88,3.52,3.52,0,0,1-1.11,1.22,4.93,4.93,0,0,1-1.62.69,8.45,8.45,0,0,1-1.9.21H55.6v4.79H52.53v-12.7h4.66a8.57,8.57,0,0,1,2,.21,4.79,4.79,0,0,1,1.58.66,3.32,3.32,0,0,1,1.06,1.2A4.07,4.07,0,0,1,62.16,111.27Zm-3.07,0a1.4,1.4,0,0,0-.17-.74,1.22,1.22,0,0,0-.49-.44,2.07,2.07,0,0,0-.69-.22,6.87,6.87,0,0,0-.8,0H55.6v3h1.29a4.32,4.32,0,0,0,.82-.07,2.21,2.21,0,0,0,.71-.25,1.36,1.36,0,0,0,.5-.48A1.38,1.38,0,0,0,59.09,111.29Z"/><path class="cls-1" d="M73.82,120.06v-5.31H68.87v5.31H65.8v-12.7h3.07v4.81h4.95v-4.81h3.07v12.7Z"/><path class="cls-1" d="M81.3,120.06v-12.7h3.08v12.7Z"/><path class="cls-1" d="M97.89,119.84a6.93,6.93,0,0,1-2.85.56,7.51,7.51,0,0,1-2.72-.48,6.36,6.36,0,0,1-3.6-3.5,7.44,7.44,0,0,1,0-5.49,6.19,6.19,0,0,1,1.46-2.11,6.41,6.41,0,0,1,2.19-1.33,7.75,7.75,0,0,1,2.71-.47,7.51,7.51,0,0,1,2.64.48,5,5,0,0,1,2.11,1.39L97.76,111a2.53,2.53,0,0,0-1.13-.88,3.73,3.73,0,0,0-1.43-.29,3.6,3.6,0,0,0-2.64,1.11,3.83,3.83,0,0,0-.75,1.23,4.31,4.31,0,0,0-.27,1.55,4.44,4.44,0,0,0,.27,1.58,3.61,3.61,0,0,0,.74,1.23,3.41,3.41,0,0,0,1.14.8,3.64,3.64,0,0,0,1.45.29,3.4,3.4,0,0,0,1.6-.36,3,3,0,0,0,1.09-.94l2.14,2A6.08,6.08,0,0,1,97.89,119.84Z"/><path class="cls-1" d="M121.2,113.68a6.23,6.23,0,0,1-.62,2.87,5.69,5.69,0,0,1-1.63,2,6.5,6.5,0,0,1-2.29,1.15,9,9,0,0,1-2.58.37h-4.73v-12.7h4.59a11.3,11.3,0,0,1,2.65.32,6.58,6.58,0,0,1,2.33,1,5.14,5.14,0,0,1,1.65,1.94A6.55,6.55,0,0,1,121.2,113.68Zm-3.19,0a4.08,4.08,0,0,0-.35-1.79,3.06,3.06,0,0,0-.93-1.13,3.75,3.75,0,0,0-1.33-.6,6.53,6.53,0,0,0-1.53-.18h-1.53v7.43h1.45a6.92,6.92,0,0,0,1.59-.19,3.8,3.8,0,0,0,1.35-.62,3.13,3.13,0,0,0,.93-1.15A4.07,4.07,0,0,0,118,113.68Z"/><path class="cls-1" d="M125,120.06v-12.7h8.54v2.58H128v2.41h5.27v2.46H128v2.63h5.9v2.62Z"/><path class="cls-1" d="M144.41,110.66a2.86,2.86,0,0,0-1-.8,3.05,3.05,0,0,0-1.23-.29,4.44,4.44,0,0,0-.62.05,1.77,1.77,0,0,0-.57.21,1.55,1.55,0,0,0-.42.39,1.08,1.08,0,0,0-.17.62,1,1,0,0,0,.14.54,1.29,1.29,0,0,0,.39.38,4.52,4.52,0,0,0,.62.29l.81.28c.43.14.88.3,1.34.48a4.94,4.94,0,0,1,1.28.69,3.59,3.59,0,0,1,1,1.06,3.12,3.12,0,0,1,.37,1.59,4.12,4.12,0,0,1-.4,1.89,3.87,3.87,0,0,1-1.08,1.32,4.7,4.7,0,0,1-1.57.77,6.43,6.43,0,0,1-1.81.25,7.6,7.6,0,0,1-2.63-.47,5.58,5.58,0,0,1-2.12-1.36l2-2a3.76,3.76,0,0,0,1.23,1,3.28,3.28,0,0,0,1.51.38,3,3,0,0,0,.67-.07,1.47,1.47,0,0,0,.56-.23,1.24,1.24,0,0,0,.39-.43,1.45,1.45,0,0,0,.14-.65,1,1,0,0,0-.18-.61,1.75,1.75,0,0,0-.51-.45,3.93,3.93,0,0,0-.82-.38l-1.13-.37c-.4-.13-.8-.29-1.19-.46a4.09,4.09,0,0,1-1-.69,3.32,3.32,0,0,1-.73-1,3.4,3.4,0,0,1-.28-1.46,3.57,3.57,0,0,1,.43-1.81,3.84,3.84,0,0,1,1.13-1.24,4.84,4.84,0,0,1,1.58-.71,7,7,0,0,1,1.77-.22,6.68,6.68,0,0,1,2.2.39,5.78,5.78,0,0,1,2,1.17Z"/><path class="cls-1" d="M150.09,120.06v-12.7h3.09v12.7Z"/><path class="cls-1" d="M166.69,120.08a11.62,11.62,0,0,1-2.72.3,7.91,7.91,0,0,1-2.8-.48,6.53,6.53,0,0,1-2.21-1.36,6.23,6.23,0,0,1-1.44-2.11,7.47,7.47,0,0,1,0-5.5,6.19,6.19,0,0,1,1.46-2.11,6.41,6.41,0,0,1,2.19-1.33,7.7,7.7,0,0,1,2.7-.47,8.18,8.18,0,0,1,2.8.46,5.67,5.67,0,0,1,2.1,1.23l-1.94,2.2a3.42,3.42,0,0,0-1.18-.85,4,4,0,0,0-1.67-.33,3.67,3.67,0,0,0-1.49.3,3.48,3.48,0,0,0-1.18.82,3.67,3.67,0,0,0-.78,1.26,4.27,4.27,0,0,0-.28,1.58,5.19,5.19,0,0,0,.25,1.62,3.47,3.47,0,0,0,.75,1.26,3.43,3.43,0,0,0,1.22.83,4.47,4.47,0,0,0,1.66.29,5.7,5.7,0,0,0,1-.08,3.54,3.54,0,0,0,.89-.26V115h-2.42v-2.48h5.24v6.73A10.25,10.25,0,0,1,166.69,120.08Z"/><path class="cls-1" d="M181.25,120.06l-5.12-8.3h0l.07,8.3h-3v-12.7h3.5l5.1,8.29h0l-.07-8.29h3v12.7Z"/><path class="cls-1" d="M189.14,120.06v-12.7h8.53v2.58H192.1v2.41h5.27v2.46H192.1v2.63H198v2.62Z"/><path class="cls-1" d="M208.61,120.06l-2.75-5h-1.05v5h-3v-12.7h4.84a8.74,8.74,0,0,1,1.78.19,4.71,4.71,0,0,1,1.56.64,3.4,3.4,0,0,1,1.11,1.18,3.75,3.75,0,0,1,.41,1.83,3.42,3.42,0,0,1-.7,2.17,3.86,3.86,0,0,1-1.94,1.26l3.32,5.43Zm-.12-8.81a1.3,1.3,0,0,0-.19-.72,1.27,1.27,0,0,0-.49-.43,2.29,2.29,0,0,0-.67-.21,5.78,5.78,0,0,0-.71,0h-1.64v3h1.46a4.26,4.26,0,0,0,.78-.07,2.42,2.42,0,0,0,.72-.22,1.4,1.4,0,0,0,.53-.47A1.34,1.34,0,0,0,208.49,111.25Z"/></g></g></svg>