<svg xmlns="http://www.w3.org/2000/svg" viewBox="0 0 16.05 16"><defs><style>.cls-1{fill:#3b3583;}</style></defs><g id="Layer_2" data-name="Layer 2"><g id="Layer_1-2" data-name="Layer 1"><g id="Layer_2-2" data-name="Layer 2"><g id="Layer_1-2-2" data-name="Layer 1-2"><path class="cls-1" d="M8,0C5.83,0,5.56,0,4.7.05A5.86,5.86,0,0,0,2.76.42,4,4,0,0,0,.42,2.76,5.86,5.86,0,0,0,.05,4.7C0,5.55,0,5.83,0,8s0,2.45.05,3.3a5.86,5.86,0,0,0,.37,1.94,4,4,0,0,0,2.34,2.34A5.86,5.86,0,0,0,4.7,16H8c2.17,0,2.44,0,3.3-.05a5.86,5.86,0,0,0,1.94-.37,4,4,0,0,0,1.42-.92,3.91,3.91,0,0,0,.92-1.42A5.86,5.86,0,0,0,16,11.3c0-.86.05-1.13.05-3.3S16,5.56,16,4.7a5.86,5.86,0,0,0-.37-1.94A4,4,0,0,0,13.24.42,5.86,5.86,0,0,0,11.3.05C10.44,0,10.17,0,8,0ZM7.28,1.44H8c2.14,0,2.39,0,3.23.05a4.22,4.22,0,0,1,1.49.27,2.65,2.65,0,0,1,1.52,1.52,4.22,4.22,0,0,1,.27,1.49c0,.84.05,1.09.05,3.23s0,2.39-.05,3.23a4.22,4.22,0,0,1-.27,1.49,2.62,2.62,0,0,1-.6.91,2.45,2.45,0,0,1-.92.6,4.47,4.47,0,0,1-1.49.28H4.77a4.47,4.47,0,0,1-1.49-.28,2.57,2.57,0,0,1-.92-.6,2.45,2.45,0,0,1-.6-.92,4.13,4.13,0,0,1-.27-1.48c0-.84-.05-1.1-.05-3.23s0-2.39.05-3.23a4.22,4.22,0,0,1,.27-1.49A2.65,2.65,0,0,1,3.28,1.76a4.22,4.22,0,0,1,1.49-.27C5.51,1.49,5.77,1.44,7.28,1.44Zm5,1.33a1,1,0,0,0,0,1.92h0a1,1,0,1,0,.56-1.92A1.06,1.06,0,0,0,12.28,2.77ZM8,3.89a4.11,4.11,0,1,0-.13,8.22H8A4.11,4.11,0,0,0,8,3.89ZM8,5.33a2.67,2.67,0,0,1,0,5.34H8A2.67,2.67,0,0,1,8,5.33Z"/></g></g></g></g></svg>