<svg xmlns="http://www.w3.org/2000/svg" viewBox="0 0 180 154.25"><defs><style>.cls-1{fill:#3b3583;}</style></defs><g id="Layer_2" data-name="Layer 2"><g id="Layer_1-2" data-name="Layer 1"><path class="cls-1" d="M54,63H36a4.5,4.5,0,1,0,0,9H54a4.5,4.5,0,0,0,0-9Z"/><path class="cls-1" d="M119.83,9A10.69,10.69,0,0,1,130.5,19.67V45h-81V19.67A10.69,10.69,0,0,1,60.17,9Zm0-9H60.17A19.67,19.67,0,0,0,40.5,19.67V54h99V19.67A19.67,19.67,0,0,0,119.83,0Z"/><path class="cls-1" d="M160.33,45H19.68A19.67,19.67,0,0,0,0,64.67v50.66A19.68,19.68,0,0,0,19.68,135H49.9a17.26,17.26,0,0,1-.4-3.7V126H19.68A10.69,10.69,0,0,1,9,115.33V64.67A10.68,10.68,0,0,1,19.68,54H160.33A10.67,10.67,0,0,1,171,64.67v50.66A10.68,10.68,0,0,1,160.33,126H130.5v5.3a17.26,17.26,0,0,1-.4,3.7h30.23A19.67,19.67,0,0,0,180,115.33V64.67A19.66,19.66,0,0,0,160.33,45Z"/><path class="cls-1" d="M143.25,91.25H36.75a5.25,5.25,0,0,0,0,10.5H40.5V131.3a26.53,26.53,0,0,0,.26,3.7c1.51,10.91,9.63,19.25,19.42,19.25h59.65c9.79,0,17.9-8.34,19.41-19.25a26.53,26.53,0,0,0,.26-3.7V101.75h3.75a5.25,5.25,0,0,0,0-10.5ZM130.5,131.3a17.26,17.26,0,0,1-.4,3.7c-1.27,5.83-5.46,10.25-10.27,10.25H60.18c-4.81,0-9-4.42-10.28-10.25a17.26,17.26,0,0,1-.4-3.7V100.25h81Z"/><rect class="cls-1" x="63.14" y="109.13" width="53.72" height="9" rx="4.5"/><rect class="cls-1" x="63.14" y="127.38" width="53.72" height="9" rx="4.5"/></g></g></svg>