<svg id="icone_tel" xmlns="http://www.w3.org/2000/svg" xmlns:xlink="http://www.w3.org/1999/xlink" width="30" height="30" viewBox="0 0 30 30">
  <defs>
    <clipPath id="clip-path">
      <rect id="Rectangle_171" data-name="Rectangle 171" width="30" height="30" fill="none"/>
    </clipPath>
  </defs>
  <g id="Groupe_59" data-name="Groupe 59">
    <g id="Groupe_52" data-name="Groupe 52" clip-path="url(#clip-path)">
      <path id="Tracé_83" data-name="Tracé 83" d="M30,15A15,15,0,1,1,15,0,15,15,0,0,1,30,15" fill="#141424"/>
      <path id="Tracé_84" data-name="Tracé 84" d="M21.908,21.872a3.72,3.72,0,0,1-1.494.915,10.662,10.662,0,0,1-1.313.178h-.015a10.583,10.583,0,0,1-1.237.028A11.238,11.238,0,0,1,7.007,11.371c.005-.151.013-.305.028-.456V10.9A10.076,10.076,0,0,1,7.211,9.59a3.771,3.771,0,0,1,.917-1.5,3.723,3.723,0,0,1,1.812-1,3.78,3.78,0,0,1,2.1.126l1.789,5.654a3.573,3.573,0,0,1-.421.5A3.729,3.729,0,0,1,11.2,14.445,11.238,11.238,0,0,0,15.554,18.8a3.729,3.729,0,0,1,1.07-2.214,3.524,3.524,0,0,1,.5-.421l5.651,1.791a3.747,3.747,0,0,1,.131,2.1,3.708,3.708,0,0,1-1,1.811" fill="#fff"/>
    </g>
  </g>
</svg>
