<svg id="icone_webdesign" xmlns="http://www.w3.org/2000/svg" xmlns:xlink="http://www.w3.org/1999/xlink" width="81.1" height="82" viewBox="0 0 81.1 82">
  <defs>
    <clipPath id="clip-path">
      <rect id="Rectangle_178" data-name="Rectangle 178" width="81.1" height="82" fill="none"/>
    </clipPath>
  </defs>
  <g id="Groupe_67" data-name="Groupe 67">
    <g id="Groupe_66" data-name="Groupe 66" clip-path="url(#clip-path)">
      <path id="Tracé_106" data-name="Tracé 106" d="M76.1,57.291H5a4,4,0,0,1-4-4V5A4,4,0,0,1,5,1H76.1a4,4,0,0,1,4,4V53.291a4,4,0,0,1-4,4" fill="#fff"/>
      <path id="Tracé_107" data-name="Tracé 107" d="M80.27,15.774h-79L1,4,3.993,1H77.106L80.1,4Z" fill="#f85e41"/>
      <path id="Tracé_108" data-name="Tracé 108" d="M80.08,30.806c-10.4-1.716-23.491-.971-39.286,4.974-16.179,6.1-29.478,6.118-39.775,3.778L1,54.291l2.993,3H77.106l2.994-3Z" fill="#f85e41"/>
      <path id="Tracé_109" data-name="Tracé 109" d="M10.751,6.619a2.521,2.521,0,0,1,0,3.536,2.453,2.453,0,0,1-3.5,0,2.521,2.521,0,0,1,0-3.536,2.453,2.453,0,0,1,3.5,0" fill="#fff"/>
      <path id="Tracé_110" data-name="Tracé 110" d="M20.919,6.619a2.521,2.521,0,0,1,0,3.536,2.453,2.453,0,0,1-3.5,0,2.521,2.521,0,0,1,0-3.536,2.453,2.453,0,0,1,3.5,0" fill="#fff"/>
      <path id="Tracé_111" data-name="Tracé 111" d="M31.087,6.619a2.521,2.521,0,0,1,0,3.536,2.453,2.453,0,0,1-3.5,0,2.521,2.521,0,0,1,0-3.536,2.453,2.453,0,0,1,3.5,0" fill="#fff"/>
      <path id="Tracé_112" data-name="Tracé 112" d="M55.083,81H26.017a2,2,0,0,1-2-2V77a2,2,0,0,1,2-2H55.083a2,2,0,0,1,2,2v2a2,2,0,0,1-2,2" fill="#fff"/>
      <path id="Tracé_113" data-name="Tracé 113" d="M46.335,75H34.765l1.854-17.709h7.862Z" fill="#fff"/>
      <rect id="Rectangle_176" data-name="Rectangle 176" width="79.1" height="56.291" rx="4" transform="translate(1 1)" fill="none" stroke="#000" stroke-width="2"/>
      <rect id="Rectangle_177" data-name="Rectangle 177" width="33.066" height="6" rx="2" transform="translate(24.017 75)" fill="none" stroke="#000" stroke-width="2"/>
      <path id="Tracé_114" data-name="Tracé 114" d="M10.751,6.619a2.521,2.521,0,0,1,0,3.536,2.453,2.453,0,0,1-3.5,0,2.521,2.521,0,0,1,0-3.536A2.453,2.453,0,0,1,10.751,6.619Z" fill="none" stroke="#000" stroke-width="2"/>
      <path id="Tracé_115" data-name="Tracé 115" d="M1.02,39.558c10.3,2.34,23.6,2.322,39.775-3.778,15.794-5.945,28.884-6.69,39.286-4.974" fill="none" stroke="#000" stroke-width="2"/>
      <line id="Ligne_3" data-name="Ligne 3" x2="79.002" transform="translate(0.269 15.774)" fill="none" stroke="#000" stroke-width="2"/>
      <path id="Tracé_116" data-name="Tracé 116" d="M46.335,75H34.765l1.854-17.709h7.862Z" fill="none" stroke="#000" stroke-width="2"/>
      <path id="Tracé_117" data-name="Tracé 117" d="M20.919,6.619a2.521,2.521,0,0,1,0,3.536,2.453,2.453,0,0,1-3.5,0,2.521,2.521,0,0,1,0-3.536A2.453,2.453,0,0,1,20.919,6.619Z" fill="none" stroke="#000" stroke-width="2"/>
      <path id="Tracé_118" data-name="Tracé 118" d="M31.087,6.619a2.521,2.521,0,0,1,0,3.536,2.453,2.453,0,0,1-3.5,0,2.521,2.521,0,0,1,0-3.536A2.453,2.453,0,0,1,31.087,6.619Z" fill="none" stroke="#000" stroke-width="2"/>
    </g>
  </g>
</svg>
