<svg xmlns="http://www.w3.org/2000/svg" viewBox="0 0 180 153"><defs><style>.cls-1{fill:#3b3583;}</style></defs><g id="Layer_2" data-name="Layer 2"><g id="Layer_1-2" data-name="Layer 1"><path class="cls-1" d="M160.33,9A10.69,10.69,0,0,1,171,19.67V133.33A10.69,10.69,0,0,1,160.33,144H19.67A10.69,10.69,0,0,1,9,133.33V19.67A10.69,10.69,0,0,1,19.67,9H160.33m0-9H19.67A19.67,19.67,0,0,0,0,19.67V133.33A19.67,19.67,0,0,0,19.67,153H160.33A19.67,19.67,0,0,0,180,133.33V19.67A19.67,19.67,0,0,0,160.33,0Z"/><polygon class="cls-1" points="171 36 9 36 9 45 171 45 171 36 171 36"/><path class="cls-1" d="M75.4,72A5.6,5.6,0,0,1,81,77.6v33.8a5.6,5.6,0,0,1-5.6,5.6H41.6a5.6,5.6,0,0,1-5.6-5.6V77.6A5.6,5.6,0,0,1,41.6,72H75.4m0-9H41.6A14.6,14.6,0,0,0,27,77.6v33.8A14.6,14.6,0,0,0,41.6,126H75.4A14.6,14.6,0,0,0,90,111.4V77.6A14.6,14.6,0,0,0,75.4,63Z"/><path class="cls-1" d="M148.5,63h-36a4.5,4.5,0,0,0,0,9h36a4.5,4.5,0,0,0,0-9Z"/><path class="cls-1" d="M148.5,117h-36a4.5,4.5,0,0,0,0,9h36a4.5,4.5,0,0,0,0-9Z"/><path class="cls-1" d="M148.5,90h-36a4.5,4.5,0,0,0,0,9h36a4.5,4.5,0,0,0,0-9Z"/><path class="cls-1" d="M22.5,18A4.5,4.5,0,1,0,27,22.5,4.49,4.49,0,0,0,22.5,18Z"/><path class="cls-1" d="M40.5,18A4.5,4.5,0,1,0,45,22.5,4.49,4.49,0,0,0,40.5,18Z"/><path class="cls-1" d="M58.5,18A4.5,4.5,0,1,0,63,22.5,4.49,4.49,0,0,0,58.5,18Z"/></g></g></svg>