<svg xmlns="http://www.w3.org/2000/svg" viewBox="0 0 30.86 40.12"><defs><style>.cls-1{fill:#eb6a7d;}</style></defs><g id="Layer_2" data-name="Layer 2"><g id="Layer_7" data-name="Layer 7"><path class="cls-1" d="M26.23,30.86h-17V4.63A4.63,4.63,0,0,0,0,4.63V35.49a4.63,4.63,0,0,0,4.63,4.63h21.6a4.63,4.63,0,0,0,0-9.26Z"/><path class="cls-1" d="M18.69,9.26h7.54a4.63,4.63,0,0,0,0-9.26H18.69a4.63,4.63,0,0,0,0,9.26Z"/><path class="cls-1" d="M18.69,24.69a4.63,4.63,0,1,0-4.63-4.63A4.63,4.63,0,0,0,18.69,24.69Z"/></g></g></svg>