<svg xmlns="http://www.w3.org/2000/svg" viewBox="0 0 328.44 178.94"><defs><style>.cls-1{fill:#3b3583;}</style></defs><g id="Layer_2" data-name="Layer 2"><g id="Layer_1-2" data-name="Layer 1"><g id="Groupe_203" data-name="Groupe 203"><path id="Tracé_143" data-name="Tracé 143" class="cls-1" d="M78,93.26H27.52v-78A13.76,13.76,0,0,0,0,15.28V107a13.76,13.76,0,0,0,13.76,13.76H78a13.76,13.76,0,0,0,0-27.52Z"/><path id="Tracé_144" data-name="Tracé 144" class="cls-1" d="M55.55,29H78A13.76,13.76,0,1,0,78,1.52H55.55a13.76,13.76,0,0,0,0,27.52Z"/><circle id="Ellipse_26" data-name="Ellipse 26" class="cls-1" cx="55.55" cy="61.15" r="13.76"/></g><g id="Groupe_204" data-name="Groupe 204"><path id="Tracé_145" data-name="Tracé 145" class="cls-1" d="M137.05,3.16h26.49A4.81,4.81,0,0,1,167,4.48a4.38,4.38,0,0,1,1.39,3.36A4.08,4.08,0,0,1,167,11a5,5,0,0,1-3.44,1.22H141.4l.71-1.34V26.34l-.64-.63H160a4.78,4.78,0,0,1,3.43,1.3,4.4,4.4,0,0,1,1.39,3.36,4,4,0,0,1-1.39,3.2A4.86,4.86,0,0,1,160,34.8H141.72l.39-.63v16l-.64-.71h22.07A4.61,4.61,0,0,1,167,50.82a4.37,4.37,0,0,1,1.39,3.2A4.16,4.16,0,0,1,167,57.26a4.9,4.9,0,0,1-3.44,1.27H137.05a4.74,4.74,0,0,1-4.83-4.63V8a4.75,4.75,0,0,1,4.65-4.83Z"/><path id="Tracé_146" data-name="Tracé 146" class="cls-1" d="M201.11,15.42c3.9,0,6.86.82,8.9,2.46a12.5,12.5,0,0,1,4.19,6.52,33.35,33.35,0,0,1,1.14,9.06V53.71A4.74,4.74,0,0,1,214,57.15a4.89,4.89,0,0,1-6.81,0,4.73,4.73,0,0,1-1.33-3.44V33.46a15.3,15.3,0,0,0-.68-4.71,6.53,6.53,0,0,0-2.41-3.36,8.41,8.41,0,0,0-5-1.26,10.45,10.45,0,0,0-5.34,1.26,8.74,8.74,0,0,0-3.33,3.36A9.67,9.67,0,0,0,188,33.46V53.71a4.75,4.75,0,0,1-1.35,3.44,4.88,4.88,0,0,1-6.8,0,4.74,4.74,0,0,1-1.34-3.44V21a4.74,4.74,0,0,1,1.34-3.45,4.88,4.88,0,0,1,6.8,0A4.77,4.77,0,0,1,188,21v3.4l-1.19-.23a15,15,0,0,1,2.06-2.89A18.9,18.9,0,0,1,192,18.43a15.89,15.89,0,0,1,4.11-2.18A14.79,14.79,0,0,1,201.11,15.42Z"/><path id="Tracé_147" data-name="Tracé 147" class="cls-1" d="M264.85,37.42A22.33,22.33,0,0,1,262,48.85a20.72,20.72,0,0,1-7.74,7.7,22.77,22.77,0,0,1-21.76,0,20.65,20.65,0,0,1-7.74-7.7,24,24,0,0,1,0-22.86,20.93,20.93,0,0,1,7.74-7.75,22.45,22.45,0,0,1,21.76,0A20.93,20.93,0,0,1,262,26,22.21,22.21,0,0,1,264.85,37.42Zm-9.49,0a14.46,14.46,0,0,0-1.62-7,12,12,0,0,0-4.35-4.62,11.82,11.82,0,0,0-12.1,0,12,12,0,0,0-4.35,4.62,14.46,14.46,0,0,0-1.62,7,14.1,14.1,0,0,0,1.62,6.91A12.1,12.1,0,0,0,237.29,49a11.82,11.82,0,0,0,12.1,0,12,12,0,0,0,4.35-4.63,14.1,14.1,0,0,0,1.62-6.91Z"/><path id="Tracé_148" data-name="Tracé 148" class="cls-1" d="M281.54,53.71a4.73,4.73,0,0,1-4.63,4.82h-.2a4.43,4.43,0,0,1-3.32-1.39A4.75,4.75,0,0,1,272,53.71V4.82A4.73,4.73,0,0,1,276.67,0h.2a4.4,4.4,0,0,1,3.36,1.39,4.85,4.85,0,0,1,1.31,3.43Z"/><path id="Tracé_149" data-name="Tracé 149" class="cls-1" d="M323.69,15.42a4.62,4.62,0,0,1,4.75,4.83V53.71a4.75,4.75,0,0,1-1.35,3.44,4.88,4.88,0,0,1-6.8,0A4.78,4.78,0,0,1,319,53.71V49.83l1.74.71a4.43,4.43,0,0,1-1.11,2.5,15.17,15.17,0,0,1-3,2.88,18.22,18.22,0,0,1-4.47,2.41,15.38,15.38,0,0,1-5.58,1,18.08,18.08,0,0,1-9.88-2.8,19.68,19.68,0,0,1-7-7.76,26.48,26.48,0,0,1,0-22.77,20,20,0,0,1,6.92-7.75,17.37,17.37,0,0,1,9.65-2.81,18.15,18.15,0,0,1,6.24,1,19,19,0,0,1,5,2.62,14.9,14.9,0,0,1,3.24,3.2A5,5,0,0,1,321.8,25L319,26V20.25a4.75,4.75,0,0,1,1.35-3.44A4.55,4.55,0,0,1,323.69,15.42Zm-16,35.2a10.7,10.7,0,0,0,6.09-1.74,11.76,11.76,0,0,0,4.07-4.74,15,15,0,0,0,1.46-6.72,15.34,15.34,0,0,0-1.46-6.8,11.77,11.77,0,0,0-4.07-4.75,10.7,10.7,0,0,0-6.09-1.74,10.57,10.57,0,0,0-6,1.74,11.57,11.57,0,0,0-4.07,4.75,15.21,15.21,0,0,0-1.47,6.8,14.9,14.9,0,0,0,1.47,6.72,11.68,11.68,0,0,0,4.07,4.74A10.5,10.5,0,0,0,307.72,50.62Z"/></g><g id="Groupe_205" data-name="Groupe 205"><path id="Tracé_150" data-name="Tracé 150" class="cls-1" d="M160,111.63a4.41,4.41,0,0,1,3.14,1.19,4,4,0,0,1,1.25,3.06,4,4,0,0,1-1.25,3,4.45,4.45,0,0,1-3.14,1.19h-23.4a4.31,4.31,0,0,1-4.39-4.22V74.05a4.18,4.18,0,0,1,1.29-3.13,4.55,4.55,0,0,1,3.32-1.26,4.32,4.32,0,0,1,3.06,1.26,4.13,4.13,0,0,1,1.33,3.13v38.81l-1.58-1.23Z"/><path id="Tracé_151" data-name="Tracé 151" class="cls-1" d="M204.61,100.83A20.41,20.41,0,0,1,202,111.24a18.92,18.92,0,0,1-7.06,7,20.71,20.71,0,0,1-19.8,0,18.85,18.85,0,0,1-7.06-7,21.9,21.9,0,0,1,0-20.82,19.18,19.18,0,0,1,7.06-7,20.49,20.49,0,0,1,19.8,0,19.25,19.25,0,0,1,7.06,7A20.41,20.41,0,0,1,204.61,100.83Zm-8.64,0a13.08,13.08,0,0,0-1.47-6.37,10.93,10.93,0,0,0-4-4.21,10.76,10.76,0,0,0-11,0,11,11,0,0,0-4,4.21,13.08,13.08,0,0,0-1.47,6.37,12.9,12.9,0,0,0,1.47,6.3,10.91,10.91,0,0,0,4,4.21,10.69,10.69,0,0,0,15-4.21A13,13,0,0,0,196,100.83Z"/><path id="Tracé_152" data-name="Tracé 152" class="cls-1" d="M239,81.54a4.1,4.1,0,0,1,3.09,1.26,4.32,4.32,0,0,1,1.22,3.13v18.29q0,7.62-4.24,12.09t-12.25,4.46q-8,0-12.2-4.46t-4.21-12.09V85.93a4.32,4.32,0,0,1,1.22-3.13,4.44,4.44,0,0,1,6.2,0,4.32,4.32,0,0,1,1.22,3.13v18.29q0,4.4,1.94,6.51t5.83,2.13q4,0,5.91-2.13c1.3-1.41,1.94-3.58,1.94-6.51V85.93a4.32,4.32,0,0,1,1.22-3.13A4.13,4.13,0,0,1,239,81.54Z"/><path id="Tracé_153" data-name="Tracé 153" class="cls-1" d="M266.31,80.82a15.81,15.81,0,0,1,5.54.93,16.35,16.35,0,0,1,4.36,2.38A14.13,14.13,0,0,1,279.08,87a4.59,4.59,0,0,1,1.05,2.49l-1.87.94V85.21a4.32,4.32,0,0,1,1.22-3.13,4.48,4.48,0,0,1,6.19,0,4.3,4.3,0,0,1,1.23,3.17v32q0,6.27-2.7,10.05a15.24,15.24,0,0,1-7.1,5.47,26.09,26.09,0,0,1-9.42,1.7,24.81,24.81,0,0,1-3.74-.37c-1.54-.24-3-.53-4.4-.86a23.38,23.38,0,0,1-3.16-.94,6.07,6.07,0,0,1-3-2.34,3.48,3.48,0,0,1-.32-3,4.49,4.49,0,0,1,2.08-2.85,3.61,3.61,0,0,1,3-.18c.48.14,1.27.43,2.38.86a35,35,0,0,0,3.63,1.19,13.8,13.8,0,0,0,3.49.54q5.4,0,8-2.16a7.35,7.35,0,0,0,2.59-6v-6.27l.86.65a4.09,4.09,0,0,1-1,2.27,13.21,13.21,0,0,1-2.66,2.62,16.2,16.2,0,0,1-4,2.2,13.43,13.43,0,0,1-4.9.9,17.07,17.07,0,0,1-9.22-2.56,18,18,0,0,1-6.47-7,23.8,23.8,0,0,1,0-20.74,18.2,18.2,0,0,1,6.41-7A16.44,16.44,0,0,1,266.31,80.82Zm1.37,7.91A10.23,10.23,0,0,0,262,90.32a10.77,10.77,0,0,0-3.82,4.32,13.75,13.75,0,0,0-1.37,6.18,13.53,13.53,0,0,0,1.37,6.12,10.76,10.76,0,0,0,3.82,4.32,11.16,11.16,0,0,0,11.45,0,10.84,10.84,0,0,0,3.82-4.32,14.59,14.59,0,0,0,0-12.3,10.84,10.84,0,0,0-3.82-4.32,10.48,10.48,0,0,0-5.76-1.59Z"/><path id="Tracé_154" data-name="Tracé 154" class="cls-1" d="M311.67,120.77a21.06,21.06,0,0,1-10.62-2.55,17.57,17.57,0,0,1-6.91-7,20.23,20.23,0,0,1-2.41-9.93,21.81,21.81,0,0,1,2.62-11,18.62,18.62,0,0,1,6.88-7,17.76,17.76,0,0,1,9-2.45,16.51,16.51,0,0,1,6.95,1.51A19,19,0,0,1,323,86.47a20.11,20.11,0,0,1,4,6.09,18.33,18.33,0,0,1,1.47,7.34,3.67,3.67,0,0,1-1.37,2.8,4.52,4.52,0,0,1-3,1.08h-27.5l-2.16-7.19h26.42L319.23,98V96.08a6.63,6.63,0,0,0-1.47-3.75,9.82,9.82,0,0,0-3.31-2.62,9.5,9.5,0,0,0-4.22-1,13.79,13.79,0,0,0-4,.58A7.86,7.86,0,0,0,303,91.25a9.53,9.53,0,0,0-2.16,3.68,18,18,0,0,0-.79,5.83,12.48,12.48,0,0,0,1.62,6.59,11,11,0,0,0,9.6,5.5,16.41,16.41,0,0,0,4.25-.43,9.5,9.5,0,0,0,2.56-1c.65-.41,1.24-.76,1.77-1a5.35,5.35,0,0,1,2.44-.65,3.62,3.62,0,0,1,3.68,3.58v0a4.46,4.46,0,0,1-2,3.52,16.47,16.47,0,0,1-5.25,2.78A21.33,21.33,0,0,1,311.67,120.77Z"/></g><g id="Groupe_207" data-name="Groupe 207"><path id="Tracé_155" data-name="Tracé 155" class="cls-1" d="M1.07,170c0-5.78,4.23-9.14,9.35-9.14a8.73,8.73,0,0,1,6,2.27l-2.29,2.53a5.18,5.18,0,0,0-3.62-1.39c-2.95,0-5.05,2.1-5.05,5.61s1.79,5.66,5.4,5.66a3.8,3.8,0,0,0,2-.52v-3H9.76v-3.22h7v8a9.83,9.83,0,0,1-6.33,2.11C5.18,178.93,1.07,175.87,1.07,170Z"/><path id="Tracé_156" data-name="Tracé 156" class="cls-1" d="M22.22,161.17h6.91c4.07,0,7.4,1.29,7.4,5.43s-3.34,5.73-7.4,5.73H26.56v6.28H22.22Zm6.55,8c2.29,0,3.51-.88,3.51-2.6s-1.22-2.3-3.51-2.3H26.56v4.9Zm-.44,2.09,3-2.52,6.13,9.84H32.61Z"/><path id="Tracé_157" data-name="Tracé 157" class="cls-1" d="M45.07,161.17h5.18l6,17.44H51.69l-2.51-8.84c-.53-1.74-1-3.8-1.56-5.62h-.11C47,166,46.52,168,46,169.77l-2.51,8.84H39ZM43,171.39h9.23v3.07H43Z"/><path id="Tracé_158" data-name="Tracé 158" class="cls-1" d="M59.59,161.17h6.59c4.22,0,7.63,1.37,7.63,5.61s-3.44,5.91-7.51,5.91H63.93v5.92H59.59ZM66,169.56c2.38,0,3.52-1,3.52-2.78s-1.29-2.48-3.64-2.48h-2v5.26Z"/><path id="Tracé_159" data-name="Tracé 159" class="cls-1" d="M78.6,161.17h4.34v6.73h6.62v-6.73h4.33v17.44H89.56v-7.28H82.94v7.28H78.6Z"/><path id="Tracé_160" data-name="Tracé 160" class="cls-1" d="M99.91,161.17h4.33v17.44H99.91Z"/><path id="Tracé_161" data-name="Tracé 161" class="cls-1" d="M109,176.41l2.5-2.71a7.93,7.93,0,0,0,4.7,1.82c1.82,0,2.7-.65,2.7-1.67s-1.09-1.45-2.76-2.08l-2.5-1c-2-.73-3.87-2.22-3.87-4.75,0-2.89,2.84-5.2,6.83-5.2a9.36,9.36,0,0,1,6.18,2.29l-2.19,2.48a6.6,6.6,0,0,0-4-1.37c-1.49,0-2.45.57-2.45,1.57s1.26,1.46,2.94,2.07l2.44.9c2.35.86,3.81,2.27,3.81,4.73,0,2.9-2.66,5.41-7.23,5.41A11.21,11.21,0,0,1,109,176.41Z"/><path id="Tracé_162" data-name="Tracé 162" class="cls-1" d="M131.23,164.48H126v-3.31h14.9v3.31h-5.28v14.13h-4.34Z"/><path id="Tracé_163" data-name="Tracé 163" class="cls-1" d="M145.31,161.17h12v3.31h-7.68V168h6.54v3.31h-6.54v4h8v3.31H145.31Z"/><path id="Tracé_164" data-name="Tracé 164" class="cls-1" d="M170.26,161.17h12.11v3.31H174.6v4h6.64v3.31H174.6v6.78h-4.34Z"/><path id="Tracé_165" data-name="Tracé 165" class="cls-1" d="M187.15,161.17h6.92c4.06,0,7.39,1.29,7.39,5.43s-3.33,5.73-7.39,5.73h-2.58v6.28h-4.34Zm6.56,8c2.28,0,3.5-.88,3.5-2.6s-1.22-2.3-3.5-2.3h-2.22v4.9Zm-.44,2.09,3-2.52,6.13,9.84h-4.86Z"/><path id="Tracé_166" data-name="Tracé 166" class="cls-1" d="M206.66,161.17h12v3.31H211V168h6.54v3.31H211v4h8v3.31H206.66Z"/><path id="Tracé_167" data-name="Tracé 167" class="cls-1" d="M224.26,161.17h12v3.31H228.6V168h6.54v3.31H228.6v4h8v3.31H224.26Z"/><path id="Tracé_168" data-name="Tracé 168" class="cls-1" d="M241.85,161.17h4.34V175.3h7.57v3.31H241.85Z"/><path id="Tracé_169" data-name="Tracé 169" class="cls-1" d="M262,161.17h5.19l6,17.44h-4.59l-2.51-8.84c-.53-1.74-1.05-3.8-1.56-5.62h-.12c-.46,1.84-1,3.88-1.5,5.62l-2.53,8.84h-4.43Zm-2,10.22h9.23v3.07h-9.23Z"/><path id="Tracé_170" data-name="Tracé 170" class="cls-1" d="M276.49,161.17h4.45l5,8.67,1.9,3.83H288a61.17,61.17,0,0,1-.56-6.34v-6.16h4.13v17.44h-4.44l-5-8.7-1.9-3.8h-.11c.29,2.09.47,4.2.55,6.31v6.19h-4.13Z"/><path id="Tracé_171" data-name="Tracé 171" class="cls-1" d="M296.62,170a8.75,8.75,0,0,1,9.06-9.14,8.53,8.53,0,0,1,5.77,2.27l-2.29,2.53a5,5,0,0,0-3.38-1.39c-2.63,0-4.71,2.1-4.71,5.61s1.83,5.66,4.64,5.66a5.29,5.29,0,0,0,3.75-1.63l2.28,2.47a8.21,8.21,0,0,1-6.19,2.56C300.68,178.93,296.62,175.87,296.62,170Z"/><path id="Tracé_172" data-name="Tracé 172" class="cls-1" d="M316.13,161.17h12v3.31h-7.69V168H327v3.31h-6.54v4h8v3.31H316.13Z"/></g></g></g></svg>