<svg xmlns="http://www.w3.org/2000/svg" viewBox="0 0 177.58 137.54"><defs><style>.cls-1{fill:#3b3583;}</style></defs><g id="Layer_2" data-name="Layer 2"><g id="Layer_1-2" data-name="Layer 1"><polygon class="cls-1" points="160.71 95.74 154.94 105.48 100.7 116.04 89.76 109.55 160.71 95.74"/><path class="cls-1" d="M130.23,136.57,26.82,75.3a9.36,9.36,0,0,1-4.48-6.67l-7-47.06a4,4,0,0,1,2.6-4.39L63.23.49A7.87,7.87,0,0,1,70,1.1L174.42,63a6.44,6.44,0,0,1,2.26,8.83l-36.92,62.31A7,7,0,0,1,130.23,136.57Zm-95.37-67,92.49,54.8a6.63,6.63,0,0,0,9.09-2.32l27.77-46.87a6.71,6.71,0,0,0-2.35-9.2L69.21,11.11a8.22,8.22,0,0,0-7-.64L27.91,23.09a4.06,4.06,0,0,0-2.6,4.4l5.34,35.85A8.81,8.81,0,0,0,34.86,69.6Z"/><rect class="cls-1" x="27.71" y="45.32" width="80.61" height="9" transform="translate(-9.52 82.94) rotate(-59.35)"/><path class="cls-1" d="M47.75,52.13a14.53,14.53,0,0,1-10.82-4.92,10.67,10.67,0,0,1-1.21-1.62A14.32,14.32,0,0,1,55.06,25.53l2.6,2.59A14.06,14.06,0,0,1,60.2,44.89a14.21,14.21,0,0,1-8.88,6.79A14.55,14.55,0,0,1,47.75,52.13Zm0-19.6a5.3,5.3,0,1,0,3.06,1A5.31,5.31,0,0,0,47.78,32.53Z"/><rect class="cls-1" x="-2.51" y="16.86" width="45" height="9" rx="4.5" transform="translate(13.68 -7.2) rotate(30.65)"/></g></g></svg>