<svg xmlns="http://www.w3.org/2000/svg" viewBox="0 0 112.2 112.2"><defs><style>.cls-1{fill:#3b3583;}</style></defs><g id="Layer_2" data-name="Layer 2"><g id="Layer_1-2" data-name="Layer 1"><g id="Layer_2-2" data-name="Layer 2"><g id="Capa_1" data-name="Capa 1"><path class="cls-1" d="M62.14,49.3v-.14c0,.05-.06.09-.08.14Z"/><path class="cls-1" d="M56.5,0a56.1,56.1,0,1,0,55.7,56.5A56.11,56.11,0,0,0,56.5,0ZM41.07,83.63l-13.41-.09L28,43.21l13.41.09ZM34.7,37.76h-.09c-4.5,0-7.39-3.16-7.36-7.06s3.05-7,7.64-6.94,7.38,3,7.44,7S39.37,37.79,34.7,37.76ZM89.42,84,76,83.88l.16-21.58c0-5.42-1.88-9.13-6.73-9.16a7.33,7.33,0,0,0-6.91,4.91,9,9,0,0,0-.48,3.26l-.16,22.47-13.41-.09s.44-36.55.29-40.33l13.41.09,0,5.71a13.32,13.32,0,0,1,12.14-6.57c8.82.06,15.4,5.88,15.31,18.26Z"/></g></g></g></g></svg>