<svg xmlns="http://www.w3.org/2000/svg" viewBox="0 0 171 153"><defs><style>.cls-1{fill:#3b3583;}</style></defs><g id="Layer_2" data-name="Layer 2"><g id="Layer_1-2" data-name="Layer 1"><path class="cls-1" d="M162,0H26.87L0,26.87V153H144.18L171,126.18V0ZM30.6,9H157L139,27H12.6ZM9,36H135v9.79c-25,1.61-40.08,9.76-52.49,16.44C71.86,68,63.44,72.5,51.43,72.5c-18.47,0-33.14-7.07-41.14-12L9,59.68ZM9,144V70.58l1.29.68A89.35,89.35,0,0,0,51.43,81.5c14.92,0,25.39-5.64,36.48-11.61C99.76,63.5,113,56.37,135,54.81V144Zm135-3.55V34.68l18-18V122.45Z"/><path class="cls-1" d="M121.5,99h-99a4.5,4.5,0,0,0,0,9h99a4.5,4.5,0,0,0,0-9Z"/><path class="cls-1" d="M85.5,117h-63a4.5,4.5,0,0,0,0,9h63a4.5,4.5,0,0,0,0-9Z"/><path class="cls-1" d="M121.5,117h-18a4.5,4.5,0,0,0,0,9h18a4.5,4.5,0,0,0,0-9Z"/></g></g></svg>